<svg width="40" height="41" viewBox="0 0 40 41" fill="none" xmlns="http://www.w3.org/2000/svg">
<path d="M40 20.5377C40 30.6387 32.5118 38.9893 22.7848 40.3448C21.8749 40.4715 20.9444 40.5371 20 40.5371C18.9094 40.5371 17.8395 40.4496 16.796 40.2814C7.27399 38.7486 0 30.4913 0 20.5365C0 9.49113 8.95429 0.537109 20 0.537109C31.0457 0.537109 40 9.49113 40 20.5365V20.5377Z" fill="#021526"/>
<path d="M26.2632 8.53125H13.7364C10.2756 8.53125 7.46094 11.3459 7.46094 14.8065V26.2665C7.46094 29.7272 10.2756 32.5418 13.7364 32.5418H26.2632C29.724 32.5418 32.5387 29.7272 32.5387 26.2665V14.8065C32.5387 11.3459 29.724 8.53125 26.2632 8.53125ZM9.67445 14.8065C9.67445 12.5666 11.4964 10.7447 13.7364 10.7447H26.2632C28.5032 10.7447 30.3252 12.5666 30.3252 14.8065V26.2665C30.3252 28.5065 28.5032 30.3284 26.2632 30.3284H13.7364C11.4964 30.3284 9.67445 28.5065 9.67445 26.2665V14.8065Z" fill="white"/>
<path d="M20.0019 26.3746C23.2209 26.3746 25.8398 23.7557 25.8398 20.5369C25.8398 17.3181 23.2209 14.6992 20.0019 14.6992C16.783 14.6992 14.1641 17.3181 14.1641 20.5369C14.1641 23.7557 16.783 26.3746 20.0019 26.3746ZM20.0019 16.9138C22.0001 16.9138 23.6251 18.5388 23.6251 20.5369C23.6251 22.535 22.0001 24.16 20.0019 24.16C18.0038 24.16 16.3787 22.535 16.3787 20.5369C16.3787 18.5388 18.0038 16.9138 20.0019 16.9138Z" fill="white"/>
<path d="M26.3779 15.6424C27.2451 15.6424 27.951 14.9364 27.951 14.0692C27.951 13.2021 27.2451 12.4961 26.3779 12.4961C25.5107 12.4961 24.8047 13.2021 24.8047 14.0692C24.8047 14.9364 25.5107 15.6424 26.3779 15.6424Z" fill="white"/>
</svg>
