<svg width="40" height="41" viewBox="0 0 40 41" fill="none" xmlns="http://www.w3.org/2000/svg">
<path d="M40 20.5377C40 30.6388 32.5118 38.9893 22.7848 40.3448C21.8749 40.4715 20.9444 40.5371 20 40.5371C18.9093 40.5371 17.8395 40.4496 16.796 40.2814C7.27399 38.7486 0 30.4913 0 20.5365C0 9.49113 8.95427 0.537109 20 0.537109C31.0457 0.537109 40 9.49113 40 20.5365V20.5377Z" fill="#021526"/>
<path d="M7.08909 19.6362C7.14552 19.6074 7.20195 19.5809 7.25838 19.5556C8.22003 19.1099 9.19435 18.693 10.1675 18.2761C10.2205 18.2761 10.3092 18.2162 10.3575 18.1943C10.4324 18.1621 10.5072 18.1298 10.5833 18.0976C10.7272 18.0354 10.8723 17.9743 11.0163 17.9122C11.3054 17.7889 11.5933 17.6646 11.8823 17.5413C12.4593 17.2949 13.0375 17.0473 13.6145 16.7997C14.7696 16.3056 15.9247 15.8116 17.0799 15.3175C18.235 14.8234 19.3901 14.3294 20.5452 13.8353C21.7004 13.3413 22.8555 12.8472 24.0107 12.3532C25.1658 11.8591 26.3209 11.3651 27.4761 10.871C27.7329 10.7616 28.0116 10.5958 28.2857 10.5474C28.5171 10.5071 28.7429 10.4265 28.9744 10.3827C29.4154 10.2986 29.9026 10.2641 30.3253 10.4472C30.4716 10.5106 30.6051 10.6004 30.7192 10.7121C31.2547 11.243 31.1798 12.1136 31.067 12.8599C30.2769 18.0607 29.4869 23.2604 28.6957 28.4612C28.5874 29.1741 28.4412 29.9572 27.8768 30.4075C27.4 30.7887 26.7217 30.8324 26.1343 30.6701C25.5458 30.5077 25.0264 30.1656 24.5174 29.8282C22.4052 28.4301 20.293 27.0309 18.1809 25.6328C17.6787 25.2999 17.1202 24.8669 17.1259 24.2646C17.1294 23.9019 17.3459 23.5782 17.567 23.2903C19.4017 20.8972 22.0517 19.2515 24.021 16.9678C24.2986 16.6465 24.5174 16.0638 24.1362 15.8784C23.9093 15.7678 23.6479 15.9175 23.4417 16.0615C20.8378 17.8707 18.2338 19.6799 15.6299 21.488C14.78 22.0777 13.8897 22.6857 12.8659 22.8308C11.9503 22.961 11.0278 22.7064 10.141 22.445C9.3982 22.2262 8.65651 22.0028 7.91714 21.7713C7.52442 21.6492 7.11902 21.518 6.81498 21.2404C6.51093 20.964 6.33702 20.4987 6.52014 20.1302C6.63416 19.8987 6.85761 19.7525 7.0914 19.6339L7.08909 19.6362Z" fill="white"/>
</svg>
