<svg width="40" height="41" viewBox="0 0 40 41" fill="none" xmlns="http://www.w3.org/2000/svg">
<path d="M40 20.5377C40 30.6388 32.5118 38.9893 22.7848 40.3448C21.8749 40.4715 20.9444 40.5371 20 40.5371C18.9094 40.5371 17.8395 40.4496 16.796 40.2814C7.27399 38.7486 0 30.4913 0 20.5365C0 9.49113 8.95429 0.537109 20 0.537109C31.0457 0.537109 40 9.49113 40 20.5365V20.5377Z" fill="#021526"/>
<path d="M23.7113 26.4567C18.5299 26.4556 14.3137 22.2394 14.3125 17.0593C14.3148 15.7465 15.3824 14.6777 16.6942 14.6777C16.8289 14.6777 16.9625 14.6892 17.0892 14.7123C17.3702 14.7583 17.6362 14.8539 17.8827 14.9967C17.9184 15.0175 17.9426 15.052 17.9483 15.0923L18.4954 18.5438C18.5023 18.5841 18.4896 18.6244 18.4631 18.6543C18.1603 18.9895 17.7744 19.2302 17.346 19.3511L17.1399 19.4098L17.2182 19.6102C17.9253 21.4079 19.3626 22.8463 21.1615 23.5534L21.3619 23.6318L21.4195 23.4245C21.5404 22.9949 21.7811 22.6091 22.1163 22.3074C22.1404 22.2855 22.1727 22.2728 22.2061 22.2728C22.213 22.2728 22.2211 22.2728 22.228 22.2751L25.6784 22.8221C25.7198 22.8291 25.7532 22.8521 25.7751 22.8878C25.9168 23.1342 26.0124 23.4014 26.0596 23.6813C26.0815 23.8068 26.093 23.9381 26.093 24.0763C26.093 25.388 25.0242 26.4556 23.7113 26.4579V26.4567Z" fill="white"/>
<path d="M32.8997 19.4006C32.6198 16.2428 31.1733 13.3142 28.8262 11.1549C26.4653 8.98171 23.4007 7.78516 20.1967 7.78516C13.1646 7.78516 7.44303 13.5065 7.44303 20.5385C7.44303 22.8982 8.09371 25.198 9.32601 27.2007L6.57812 33.2848L15.3792 32.3474C16.9098 32.9739 18.5302 33.2917 20.1967 33.2917C20.6355 33.2917 21.0846 33.2687 21.5349 33.2226C21.9323 33.18 22.333 33.1178 22.7281 33.0384C28.6177 31.8487 32.9169 26.6214 32.9503 20.6064V20.5385C32.9503 20.155 32.9331 19.7726 32.8985 19.4018L32.8997 19.4006ZM15.7167 29.6767L10.8474 30.195L12.3019 26.9738L12.0117 26.5834C11.9898 26.5546 11.9691 26.5258 11.9449 26.4936C10.6827 24.7512 10.0159 22.692 10.0159 20.5373C10.0159 14.923 14.5834 10.3568 20.1967 10.3568C25.4564 10.3568 29.9134 14.4601 30.3429 19.6977C30.366 19.9787 30.3775 20.2609 30.3775 20.5385C30.3775 20.6179 30.3763 20.6962 30.374 20.7791C30.2658 25.4755 26.9846 29.4637 22.3952 30.4794C22.0451 30.5577 21.6858 30.6165 21.3276 30.6556C20.9557 30.6982 20.5744 30.719 20.1955 30.719C18.8469 30.719 17.5363 30.4575 16.2971 29.9416C16.1601 29.8863 16.0253 29.8276 15.8986 29.7666L15.7144 29.6779L15.7167 29.6767Z" fill="white"/>
</svg>
